Coordinates
version=1
nRows=6
nColumns=63
inDegrees=yes

Units are S.I. units (second, meters, Newtons, ...)
If the header above contains a line with 'inDegrees', this indicates whether rotational values are in degrees (yes) or radians (no).

endheader
time	pelvis_tilt	pelvis_list	pelvis_rotation	pelvis_tx	pelvis_ty	pelvis_tz	hip_flexion_r	hip_adduction_r	hip_rotation_r	knee_angle_r	knee_angle_r_beta	ankle_angle_r	subtalar_angle_r	mtp_angle_r	hip_flexion_l	hip_adduction_l	hip_rotation_l	knee_angle_l	knee_angle_l_beta	ankle_angle_l	subtalar_angle_l	mtp_angle_l	L5_S1_Flex_Ext	L5_S1_Lat_Bending	L5_S1_axial_rotation	L4_L5_Flex_Ext	L4_L5_Lat_Bending	L4_L5_axial_rotation	L3_L4_Flex_Ext	L3_L4_Lat_Bending	L3_L4_axial_rotation	L2_L3_Flex_Ext	L2_L3_Lat_Bending	L2_L3_axial_rotation	L1_L2_Flex_Ext	L1_L2_Lat_Bending	L1_L2_axial_rotation	L1_T12_Flex_Ext	L1_T12_Lat_Bending	L1_T12_axial_rotation	Abs_r3	Abs_r2	Abs_r1	Abs_t1	Abs_t2	neck_flexion	neck_bending	neck_rotation	arm_flex_r	arm_add_r	arm_rot_r	elbow_flex_r	pro_sup_r	wrist_flex_r	wrist_dev_r	arm_flex_l	arm_add_l	arm_rot_l	elbow_flex_l	pro_sup_l	wrist_flex_l	wrist_dev_l
      0.00000000	     -1.26905375	     -5.67168101	     80.17008850	      0.21205538	      0.85265536	      0.66150082	      1.32537398	     -2.13836763	     -9.74648380	      6.63627536	      0.11582486	     23.87894445	     15.73844103	      0.00000000	     -2.54392937	     -0.68929584	     -2.53602017	      3.59492584	      0.06274329	     22.89585638	     -2.29503148	      0.00000000	     -0.13521912	      0.05408488	      1.92272687	     -0.25111543	      0.07193289	      2.04289730	     -0.22215149	      0.13150198	      2.04289730	     -0.15454193	      0.13150198	      1.68238601	     -0.12556447	      0.11028989	      1.56221558	     -0.07726421	      0.08377748	      1.44204515	     -0.96585665	      0.61181899	     10.69363004	      0.00000000	      0.00000000	     12.57978398	      0.13219105	     -0.43579298	     -2.83234749	     -8.45110404	     29.56979299	     64.88705394	     82.57644051	     29.14280852	     -1.25725179	      6.64180554	     -9.07492955	     44.30174579	     64.35583244	     76.69393952	     18.65108923	      2.30174886
      0.01666667	     -1.26281630	     -5.84349275	     80.64364838	      0.21173245	      0.85217428	      0.66238406	      1.48542838	     -2.10472800	    -10.13368465	      6.64915147	      0.11604959	     24.01987439	     15.71312493	      0.00000000	     -2.27989788	     -0.75150618	     -2.57278339	      3.90732643	      0.06819571	     23.42362121	     -1.69271219	      0.00000000	     -0.12561999	      0.06817780	      1.78180055	     -0.23328888	      0.09067648	      1.89316308	     -0.20638108	      0.16576751	      1.89316308	     -0.14357108	      0.16576751	      1.55907548	     -0.11665072	      0.13902818	      1.44771295	     -0.07177926	      0.10560742	      1.33635041	     -0.89729100	      0.77124094	      9.90984011	      0.00000000	      0.00000000	     12.86676476	     -0.09023861	      0.57224520	     -2.50550047	     -8.18787530	     29.35921618	     64.60489704	     76.10327890	     29.72588291	      3.78053283	      6.06988641	     -9.00506938	     43.27291632	     64.71442946	     74.68379030	     18.96759509	      5.23078853
      0.03333333	     -1.21119808	     -5.94395941	     81.03321262	      0.21144573	      0.85175249	      0.66326031	      1.57952921	     -2.03853897	    -10.43030921	      6.66181440	      0.11627060	     24.11652778	     15.70143584	      0.00000000	     -2.06082679	     -0.87822020	     -3.44410335	      4.23902479	      0.07398494	     24.10700511	     -0.09703184	      0.00000000	     -0.12381355	      0.08076850	      1.69437248	     -0.22993414	      0.10742210	      1.80027076	     -0.20341327	      0.19638052	      1.80027076	     -0.14150650	      0.19638052	      1.48257592	     -0.11497326	      0.16470312	      1.37667764	     -0.07074706	      0.12511040	      1.27077936	     -0.88438777	      0.91366937	      9.42359145	      0.00000000	      0.00000000	     13.07384322	     -0.29687438	      1.06459238	     -2.26404728	     -8.09986563	     29.36590145	     64.57827529	     70.69081812	     29.36199015	      7.81981012	      5.88489683	     -8.97485857	     42.97830360	     64.87410558	     72.77431965	     18.72998024	      7.13124313
      0.05000000	     -1.15711141	     -6.00876730	     81.42230275	      0.21110021	      0.85135296	      0.66403198	      1.61461370	     -1.96421590	    -10.55827982	      6.61913214	      0.11552565	     24.18308532	     15.51330610	      0.00000000	     -1.88079393	     -1.00497964	     -4.27035394	      4.50196198	      0.07857406	     24.69040662	      1.40418324	      0.00000000	     -0.12377663	      0.08832347	      1.63272519	     -0.22986558	      0.11747022	      1.73477051	     -0.20335263	      0.21474969	      1.73477051	     -0.14146431	      0.21474969	      1.42863454	     -0.11493898	      0.18010922	      1.32658922	     -0.07072597	      0.13681306	      1.22454389	     -0.88412410	      0.99913276	      9.08072768	      0.00000000	      0.00000000	     13.19373214	     -0.43411733	      1.12081851	     -2.11836866	     -7.97595386	     29.08955795	     64.55930997	     68.35293060	     29.29154001	     10.09516783	      5.89883083	     -8.94791742	     42.99991734	     64.91912368	     71.33270719	     18.33840288	      8.35081605
      0.06666667	     -1.10925366	     -6.02236076	     81.46041887	      0.21115899	      0.85098374	      0.66472797	      1.67722247	     -1.90386302	    -10.30393742	      6.65658135	      0.11617926	     24.24212270	     15.27192757	      0.00000000	     -1.82159346	     -1.09623980	     -5.27947632	      4.65318331	      0.08121337	     25.15035500	      2.68377029	      0.00000000	     -0.13010253	      0.09195426	      1.65828114	     -0.24161341	      0.12229917	      1.76192371	     -0.21374544	      0.22357759	      1.76192371	     -0.14869418	      0.22357759	      1.45099600	     -0.12081321	      0.18751313	      1.34735343	     -0.07434059	      0.14243715	      1.24371085	     -0.92930935	      1.04020500	      9.22286221	      0.00000000	      0.00000000	     13.28781883	     -0.49028109	      0.94939178	     -2.10563250	     -7.91056885	     28.72932467	     64.77003459	     66.89985561	     29.03136759	     12.09809385	      6.05610662	     -8.88213974	     43.16904692	     64.91598737	     70.43834437	     17.90095977	      9.26602283
      0.08333333	     -1.06063720	     -6.02783397	     81.88251463	      0.21067987	      0.85065991	      0.66513876	      1.61631041	     -1.84420317	    -10.53461237	      6.55571123	      0.11441875	     24.29061604	     15.18088675	      0.00000000	     -1.72137906	     -1.19629354	     -5.56623222	      4.79613092	      0.08370828	     25.48400271	      3.55915096	      0.00000000	     -0.13209164	      0.09302866	      1.61394917	     -0.24530738	      0.12372812	      1.71482100	     -0.21701335	      0.22618988	      1.71482100	     -0.15096753	      0.22618988	      1.41220553	     -0.12266029	      0.18970404	      1.31133370	     -0.07547716	      0.14410139	      1.21046188	     -0.94351734	      1.05235879	      8.97630112	      0.00000000	      0.00000000	     13.21043867	     -0.45463214	      0.59894499	     -2.08047167	     -7.84333237	     28.47320822	     64.87711252	     66.47670140	     29.01696313	     13.16117496	      6.28008538	     -8.83814173	     43.43761577	     64.75900304	     69.91751823	     17.82197576	      9.37188944
